# xmcd
# 
# Track frame offsets:
#     150
#     21498
#     35223
#     54921
#     73922
#     91194
#     107903
#     128601
#     147326
#     164142
#     177890
# 
# Disc length: 2560
# 
# Revision: 0
# Processed by: cddbd v1.5.2PL0 Copyright (c) Steve Scherf et al.
# Submitted via: fre:ac v1.1beta1pre3
# 
DISCID=a109fe0b
DTITLE=Jace Everett - Terra Rosa
DYEAR=2013
DGENRE=Country
TTITLE0=In The Garden
TTITLE1=No Place to Hide
TTITLE2=Lloyd's Summer Vacation
TTITLE3=Beyond The Wall
TTITLE4=Pennsylvania
TTITLE5=The Great Fish
TTITLE6=Rise Up
TTITLE7=Love Cut Me Down
TTITLE8=Like A Song
TTITLE9=Saphire
TTITLE10=Pretty Good Plan
EXTD=
EXTT0=
EXTT1=
EXTT2=
EXTT3=
EXTT4=
EXTT5=
EXTT6=
EXTT7=
EXTT8=
EXTT9=
EXTT10=
PLAYORDER=
